<?xml version="1.0" encoding="utf-8"?>
<!-- Generator: Adobe Illustrator 25.1.0, SVG Export Plug-In . SVG Version: 6.00 Build 0)  -->
<svg version="1.1" id="Layer_1" xmlns="http://www.w3.org/2000/svg" xmlns:xlink="http://www.w3.org/1999/xlink" x="0px" y="0px"
	 viewBox="0 0 61.3 97.6" style="enable-background:new 0 0 61.3 97.6;" xml:space="preserve">
<style type="text/css">
	.st0{display:none;}
	.st1{fill:#FFFFFF;}
</style>
<g id="Layer_1_1_" class="st0">
</g>
<g id="Layer_2_1_">
	<g>
		<path class="st1" d="M12,66.8h25.5v-12H12v-31H0v67.8c0,3.3,2.7,6,6,6h38.7v-12H12V66.8z"/>
		<path class="st1" d="M55.3,23.8H16.5v12h32.7v61.8h12V29.8C61.3,26.5,58.6,23.8,55.3,23.8z"/>
		<path class="st1" d="M9,15.6c2,3.6,6.5,4.9,10.1,3L42.7,8.3c0.4-0.2,0.6-0.8,0.4-1.2l-1.8-3.2c-2-3.6-6.5-4.9-10.1-3L7.6,11.2
			C7.1,11.4,7,12,7.2,12.4L9,15.6z"/>
	</g>
</g>
</svg>
